inDegrees=yes
name=ik_tiny_file
DataType=double
version=3
OpenSimVersion=4.4-2022-07-23-0e9fedc
endheader
time	pelvis_tilt	pelvis_list	pelvis_rotation	pelvis_tx	pelvis_ty	pelvis_tz	hip_flexion_r	hip_adduction_r	hip_rotation_r	knee_angle_r	knee_angle_r_beta	ankle_angle_r	subtalar_angle_r	mtp_angle_r	hip_flexion_l	hip_adduction_l	hip_rotation_l	knee_angle_l	knee_angle_l_beta	ankle_angle_l	subtalar_angle_l	mtp_angle_l	lumbar_extension	lumbar_bending	lumbar_rotation	arm_flex_r	arm_add_r	arm_rot_r	elbow_flex_r	pro_sup_r	wrist_flex_r	wrist_dev_r	arm_flex_l	arm_add_l	arm_rot_l	elbow_flex_l	pro_sup_l	wrist_flex_l	wrist_dev_l
0	0	0	0	0	0.9399999999999999	0	0	0	0	0	0	0	0	0	0	0	0	0	0	0	0	0	0	0	0	0	0	0	0	0	0	0	0	0	0	0	0	0	0
0.02	0.1747838344250172	-0.08701078888547116	-0.01612509204034375	0	0.9399999999999999	0	38.55009059979062	-11.71478866845329	0	62.3027703606076	1.087388475906538	-4.713878617548416	0	0	38.55009059979062	-11.71478866845329	0	62.3027703606076	1.087388475906538	-4.713878617548416	0	0	-0.14088009513993	0.0387665928064528	0.01797258000152122	-0.305130968776293	-0.08078562656073239	-0.02261725491581088	0.6198358788153071	44.98599698257919	0	5.50847547498138	-0.2628092879299206	-0.05391643655705535	-0.01153532872227569	0.5516115838503012	44.98599698257919	0	5.50847547498138
0.04	0.3113414539890862	-0.1633621893679592	-0.01707597136857456	0	0.9399999999999999	0	38.55104007640027	-11.71391873631875	0	62.30250400541157	1.087383827131387	-4.713936450832996	0	0	38.55104007640027	-11.71391873631875	0	62.30250400541157	1.087383827131387	-4.713936450832996	0	0	-0.211816494197262	0.06198682085434491	0.02606740051448046	-0.3476499099433124	-0.09277490412236891	-0.02566455935143167	0.6034287297008574	44.98600259990385	0	5.508020289965613	-0.2345931875807352	-0.04862257934151872	-0.02244721528251381	0.5133252378774575	44.98600259990385	0	5.508020289965613
0.06	0.4557321805130424	-0.2451359306775155	-0.02645105350918495	0	0.9399999999999999	0	38.55192075831778	-11.71311588379706	0	62.30225602510383	1.087379499058537	-4.713990026038763	0	0	38.55192075831778	-11.71311588379706	0	62.30225602510383	1.087379499058537	-4.713990026038763	0	0	-0.3154999937628393	0.0909494022439437	0.03188442564104692	-0.3691638199160115	-0.06136955092417927	0.002659730416419731	0.6066973445956952	44.98600778911129	0	5.507601197489727	-0.2420393466490686	0.008390281975814415	0.01241003042893688	0.4914243022005201	44.98600778911129	0	5.507601197489727
0.08	0.6056250652187717	-0.3165574029182916	-0.02811281481830824	0	0.9399999999999999	0	38.55286205437904	-11.71225725427985	0	62.30199117736412	1.087374876593462	-4.714047300199176	0	0	38.55286205437904	-11.71225725427985	0	62.30199117736412	1.087374876593462	-4.714047300199176	0	0	-0.4265759247447367	0.1216734760860161	0.05079197043928063	-0.3895646223734002	-0.062723693439019	-0.01257755865466894	0.6075131138827727	44.98601333846451	0	5.50715298693629	-0.2253586767239409	0.04784662930265136	0.02626101508710346	0.4599513649709417	44.98601333846451	0	5.50715298693629
0.1	0.7329528312537098	-0.3781372383142313	-0.02494287012259416	0	0.9399999999999999	0	38.55388898083504	-11.71131744494497	0	62.30170309572583	1.08736984862036	-4.714109841667754	0	0	38.55388898083504	-11.71131744494497	0	62.30170309572583	1.08736984862036	-4.714109841667754	0	0	-0.5265846842861976	0.1498513029293767	0.1068098063745377	-0.3929556713606836	-0.08032461948597366	-0.05237913091838466	0.6100681194121788	44.98601940920626	0	5.506661886743228	-0.1776968999681773	0.08188285600277156	0.06293404201157222	0.4227829111075576	44.98601940920626	0	5.506661886743228
0.12	0.8510014177894866	-0.4307762689287729	-0.05613357059664821	0	0.9399999999999999	0	38.74227406486359	-11.56173262227429	0	62.24860384905102	1.086443091935555	-4.725346113801614	0	0	38.74227406486359	-11.56173262227429	0	62.24860384905102	1.086443091935555	-4.725346113801614	0	0	-0.6257401492857363	0.2065085739126854	0.2771728854428364	-0.4069239920274306	-0.1339313335092252	-0.1408199074358686	0.6172972989679153	44.9870267042542	0	5.438463367591122	-0.1236439431032727	0.1524812899600609	0.25288765709516	0.4069946092708516	44.9870267042542	0	5.438463367591122
0.14	0.9181837793852573	-0.5142933876640452	-0.05969808769044854	0	0.9399999999999999	0	38.9165321051745	-11.43091614770331	0	62.19918806574832	1.085580623814471	-4.735644432903638	0	0	38.9165321051745	-11.43091614770331	0	62.19918806574832	1.085580623814471	-4.735644432903638	0	0	-0.5882150618785579	0.265127665154652	0.3524516124696405	-0.525596138337982	-0.1266541343624676	-0.1648069490430597	0.639409371576357	44.9879211987212	0	5.381632806466706	-0.1977203947037886	0.1557685377781498	0.4061776230163852	0.3868522909887348	44.9879211987212	0	5.381632806466706
0.16	1.04975431794764	-0.5546335693596696	-0.06780976713020755	0	0.9399999999999999	0	39.08489885866233	-11.31145235324558	0	62.15116014232736	1.08474237841788	-4.745503452489396	0	0	39.08489885866233	-11.31145235324558	0	62.15116014232736	1.08474237841788	-4.745503452489396	0	0	-0.7327741187739959	0.2814529306703659	0.3517326840577737	-0.4947563208428575	-0.1581546208750488	-0.155812630924036	0.6534130097087639	44.98875079884487	0	5.332231475667827	-0.1494296640681532	0.1662122538189551	0.402957916191951	0.3763913376005702	44.98875079884487	0	5.332231475667827
0.18	1.1626144705432	-0.6162801607517429	-0.07863726625692251	0	0.9399999999999999	0	39.25015093109889	-11.20090588869552	0	62.10372643576264	1.083914504061901	-4.75508710043303	0	0	39.25015093109889	-11.20090588869552	0	62.10372643576264	1.083914504061901	-4.75508710043303	0	0	-0.824609147743291	0.2979263669589579	0.3377293574162578	-0.5200604178514587	-0.1503066428587096	-0.1656380279432408	0.6686882212314758	44.98953093724256	0	5.288802238074816	-0.1256564415629058	0.1792398427988575	0.3244887294661618	0.3663535028288794	44.98953093724256	0	5.288802238074816
0.2	1.254029727401317	-0.6849003322460969	-0.08754155367473208	0	0.9399999999999999	0	39.41070456186092	-11.09974073905564	0	62.0573508086426	1.083105096675979	-4.764307267780391	0	0	39.41070456186092	-11.09974073905564	0	62.0573508086426	1.083105096675979	-4.764307267780391	0	0	-0.8958229097324302	0.3083731348369416	0.3183105181720131	-0.5420403799588782	-0.127345916254975	-0.1574197656382364	0.6702027438039279	44.99025664269077	0	5.251082046691764	-0.08375846292338861	0.1695516242418918	0.2980859766213797	0.3384393988483527	44.99025664269077	0	5.251082046691764
0.22	1.374888317450452	-0.7574795300056537	-0.09626777419659596	0	0.9399999999999999	0	39.58501905255115	-10.99857433064175	0	62.00656127083003	1.082218652015583	-4.774182746414433	0	0	39.58501905255115	-10.99857433064175	0	62.00656127083003	1.082218652015583	-4.774182746414433	0	0	-0.9935061543550578	0.3375474337725816	0.3092565881697727	-0.5723398655319949	-0.0970469736500742	-0.1122073301994074	0.676626628816367	44.99099878300636	0	5.21595173151119	-0.06329178179140005	0.1521915459215967	0.2890055575543574	0.322924070394108	44.99099878300636	0	5.21595173151119
0.24	1.51646499762562	-0.8151002570915069	-0.10435773715472	0	0.9399999999999999	0	39.75311870618136	-10.90669617600485	0	61.95726814958992	1.081358324751359	-4.783610498544678	0	0	39.75311870618136	-10.90669617600485	0	61.95726814958992	1.081358324751359	-4.783610498544678	0	0	-1.14161856737323	0.356700275224655	0.314050997374438	-0.5675933653413725	-0.0773876313143869	-0.09442612623467309	0.6681292633007555	44.99168370521099	0	5.185607730748957	-0.008455696321838716	0.1726083913232506	0.2677930419021344	0.3059548380966691	44.99168370521099	0	5.185607730748957
0.26	1.64613823825337	-0.8827241914907643	-0.1114976153553921	0	0.9399999999999999	0	39.75374406361752	-10.90632491015104	0	61.95708394932207	1.081355109850202	-4.783645961484959	0	0	39.75374406361752	-10.90632491015104	0	61.95708394932207	1.081355109850202	-4.783645961484959	0	0	-1.213054900395698	0.3662615965341849	0.3107034806653052	-0.6086436481990872	-0.07034394746862546	-0.07187119349481487	0.6738697290892108	44.99168640373811	0	5.185473775194461	-0.0910457489574044	0.18320031091278	0.2742802208879528	0.3151364941437885	44.99168640373811	0	5.185473775194461
0.28	1.803111332723003	-0.9565556740060981	-0.1133905291715398	0	0.9399999999999999	0	39.75494896091786	-10.90560334926062	0	61.95673154413026	1.081348959219304	-4.783714447588592	0	0	39.75494896091786	-10.90560334926062	0	61.95673154413026	1.081348959219304	-4.783714447588592	0	0	-1.347667416389196	0.3946837463054413	0.2933561624558324	-0.6764534350628731	-0.0718355947771231	-0.06421879532547116	0.7030469125971228	44.99169164028229	0	5.18521252453808	-0.05112102175018032	0.2271916278352919	0.2583456592403958	0.2874196425163502	44.99169164028229	0	5.18521252453808
0.3	1.93189666365864	-1.033046986734527	-0.1184735014494338	0	0.9399999999999999	0	39.91846222396029	-10.82212947344174	0	61.90843595432338	1.080506042162981	-4.792780870438118	0	0	39.91846222396029	-10.82212947344174	0	61.90843595432338	1.080506042162981	-4.792780870438118	0	0	-1.500052020821534	0.4471873537280646	0.2628865362907416	-0.6308898053653842	-0.07954318963990091	-0.04551063615113479	0.7105339548131818	44.99232546911913	0	5.159202220970086	0.006298810624634386	0.2515243724418471	0.2145668494660829	0.2774644562479374	44.99232546911913	0	5.159202220970086
0.32	2.083518771797296	-1.102695814490928	-0.1157168337814743	0	0.9399999999999999	0	40.06735130647886	-10.75011031912332	0	61.86420674713852	1.079734096872058	-4.80096162622154	0	0	40.06735130647886	-10.75011031912332	0	61.86420674713852	1.079734096872058	-4.80096162622154	0	0	-1.637994381980979	0.4684328682570574	0.2508542300173168	-0.6318308640223137	-0.06815129504277796	-0.02827387222722309	0.7183770622453773	44.99288026727861	0	5.13775336895691	0.03768502341555031	0.2514935155550305	0.1900147397509657	0.2694131856278729	44.99288026727861	0	5.13775336895691
0.34	2.239226056513604	-1.18852751577816	-0.1165526665706053	0	0.9399999999999999	0	40.20591955514611	-10.68664188373661	0	61.82280775361971	1.079011548128143	-4.808506271356825	0	0	40.20591955514611	-10.68664188373661	0	61.82280775361971	1.079011548128143	-4.808506271356825	0	0	-1.771069176538486	0.5187764540715688	0.2308987984171224	-0.643555927750732	-0.05757099180580667	-0.01348579894166976	0.7276479838564944	44.9933764625362	0	5.119720668511643	0.07218389926976447	0.2842184219973622	0.1244454692854286	0.2641348876663083	44.9933764625362	0	5.119720668511643
0.36	2.42167739142785	-1.272145983100135	-0.1036669814266963	0	0.9399999999999999	0	40.34950563889458	-10.6253924016187	0	61.7795913532832	1.078257279651411	-4.816231708773741	0	0	40.34950563889458	-10.6253924016187	0	61.7795913532832	1.078257279651411	-4.816231708773741	0	0	-1.961514385594176	0.5602424434114206	0.1933877406725812	-0.6185881713314311	-0.0451827885747396	0.04475651318468779	0.7431792040821301	44.99386461040762	0	5.103353268176017	0.1127869375156782	0.2931635312718683	0.06281949029378409	0.2529831381573505	44.99386461040762	0	5.103353268176017
0.38	2.507498009754522	-1.333273286836506	-0.1044182149688389	0	0.9399999999999999	0	40.52295567421782	-10.55777222514959	0	61.72689609294836	1.077337573858373	-4.825423876938631	0	0	40.52295567421782	-10.55777222514959	0	61.72689609294836	1.077337573858373	-4.825423876938631	0	0	-2.013934321494574	0.5795221327006909	0.1970250696301003	-0.6637509613813215	-0.04419003917642142	0.04620247627904713	0.7577955860654342	44.99441675203803	0	5.086621418257995	0.1382922707176481	0.2543544339780489	0.01309060900813977	0.2510810765433155	44.99441675203803	0	5.086621418257995
0.4	2.605245850685794	-1.380360131024775	-0.108450655934595	0	0.9399999999999999	0	40.52367329157354	-10.55746011197331	0	61.72667999009947	1.077333802152137	-4.825462560885613	0	0	40.52367329157354	-10.55746011197331	0	61.72667999009947	1.077333802152137	-4.825462560885613	0	0	-2.075693653007376	0.5804399047749671	0.1995276143101019	-0.7024915104666812	-0.01928649024075168	0.05043077684466426	0.7328797786470792	44.99441922212082	0	5.086535450888958	0.1147264921789994	0.270319995583301	0.01892675635148438	0.2463850795174605	44.99441922212082	0	5.086535450888958
